# xmcd CD database file
#
# Track frame offsets:
#	150
#	19477
#	38402
#	53303
#	68004
#	77933
#	95725
#	108055
#	125231
#	145685
#	160854
#
# Disc length: 2409 seconds
#
# Revision: 0
# Processed by: cddbd v1.5.2PL0 Copyright (c) Steve Scherf et al.
# Submitted via: CDex 1.51
#
DISCID=8809670b
DTITLE=Lário band - zvon
DYEAR=1900
DGENRE=Country
TTITLE0=chlapèe mùj
TTITLE1=kdo
TTITLE2=siroky proud
TTITLE3=chtel bych byt medvidkem
TTITLE4=signe
TTITLE5=nakladak
TTITLE6=blues o lasce
TTITLE7=boure
TTITLE8=tears in heaven
TTITLE9=ja to znam
TTITLE10=zvon
EXTD=
EXTT0=
EXTT1=
EXTT2=
EXTT3=
EXTT4=
EXTT5=
EXTT6=
EXTT7=
EXTT8=
EXTT9=
EXTT10=
PLAYORDER=
